<svg xmlns="http://www.w3.org/2000/svg" viewBox="0 0 100 100">
  <defs>
    <radialGradient id="ciel" cx="30%" cy="25%" r="85%">
      <stop offset="0" stop-color="#4A82E0"/>
      <stop offset="1" stop-color="#1B3F8C"/>
    </radialGradient>
  </defs>
  <rect width="100" height="100" rx="22" fill="url(#ciel)"/>
  <path d="M50 8 L60 32 L86 26 L70 47 L90 64 L63 66 L64 92 L50 74 L36 92 L37 66 L10 64 L30 47 L14 26 L40 32 Z" fill="#FFD23F" stroke="#0B2A66" stroke-width="3" stroke-linejoin="round"/>
  <path d="M61 38c-3-5-19-6-20 3-1 8 19 6 19 15 0 9-17 9-22 3" fill="none" stroke="#0B2A66" stroke-width="13" stroke-linecap="round" stroke-linejoin="round"/>
  <path d="M61 38c-3-5-19-6-20 3-1 8 19 6 19 15 0 9-17 9-22 3" fill="none" stroke="#E0463A" stroke-width="7.5" stroke-linecap="round" stroke-linejoin="round"/>
</svg>
